<svg style="display: none;"><symbol viewBox="0 0 8.672 4.91" id="shape-arrow"><title>arrow</title> <g> <path d="M6.217,4.91H4.992l2.021-2.021H0V2.021h7.014L4.992,0h1.225l2.455,2.455L6.217,4.91z"/> </g> </symbol><symbol viewBox="0 0 235.062 82.307" id="shape-plane"><title>plane</title> <g> <path d="M57.229,49.036c0,0-10.723,2.651-18.193,9.88L0,36.868c0,0,7.229-2.891,18.434-2.53L57.229,49.036z"/> <path d="M40.845,73.013c0,0-1.747-5.498,4.097-7.229c3.121-0.925,6.283-1.052,8.434,0.724c1.582,1.306,3.018,3.194,1.446,5.783
		c-1.327,2.185-3,3.132-6.62,3.132S41.447,74.699,40.845,73.013z"/> <path d="M209.159,70.844c-6.265-0.723-20.724-1.928-20.724-1.928l-22.169-1.687l-18.554-1.446c0,0,7.47-4.458,12.169-7.952
		s11.807-9.638,12.892-10.649s3.734-12.242,3.734-12.242l40.121,1.084l2.048-1.808l-19.519-1.927l-20.723-2.048
		c0,0,6.023-28.072,6.023-28.554S175.544,0,175.544,0l-22.651,38.313c-7.831,0.602-30.362-3.614-42.41-5.06
		s-22.53-1.084-24.699-0.723s-5.421,2.048-7.349,3.374S66.988,47.182,66.988,47.182c-5.181,1.277-15.904,6.312-15.904,6.312
		s-8.554,4.819-12.168,8.555s0.602,7.831,0.602,7.831c-0.001-3.253,0.845-4.097,1.447-5.181s2.525-2.763,6.868-2.892
		c5.28-0.157,8.384,1.629,10.723,4.578c2.708,3.415,0.964,7.108-2.41,8.675s-5.903,1.085-5.903,1.085s4.337,3.012,13.494,4.698
		s17.904,1.779,27.953,0.964c10.427-0.874,18.675-5.783,19.397-5.783s36.145,1.205,42.048,1.446S226.146,80,226.146,80l8.916-7.47
		C235.062,72.53,215.424,71.566,209.159,70.844z M101.93,54.699c0,0-11.326-7.927-31.928-7.518c0,0,4.579-6.338,7.952-8.748
		s3.253-2.771,5.181-2.771s8.434-0.121,11.687,0.723s8.795,3.133,8.795,3.133L101.93,54.699z M104.581,55.302l1.928-14.271
		l3.976,14.271H104.581z M114.099,54.097l-4.819-13.735h9.156l4.337,13.012L114.099,54.097z"/> <polygon points="156.977,28.432 153.977,32.432 122.727,28.432 125.977,27.432 	"/> </g> </symbol><symbol viewBox="0 0 6.188 6.38" id="shape-plus"><title>plus</title> <g> <path d="M3.682,0v2.614h2.507v1.127H3.682V6.38H2.506V3.742H0V2.614h2.506V0H3.682z"/> </g> </symbol></svg>