<svg style="display: none;"><symbol viewBox="0 0 8.672 4.91" id="shape-arrow"><title>arrow</title> <g> <path d="M6.217,4.91H4.992l2.021-2.021H0V2.021h7.014L4.992,0h1.225l2.455,2.455L6.217,4.91z"/> </g> </symbol><symbol viewBox="0 0 589.723 427.946" id="shape-flyit-logo"><title>flyit-logo</title> <polygon fill="#00A4C2" points="-0.362,427.612 0.093,73.588 234.365,151.946 377.698,171.002 465.031,181.278 589.693,187.362 
	589.693,427.946 "/> <g> <path fill="#FFFFFF" d="M67.058,280.756v44.254h23.451v29.537H67.058v44.355H43.607V251.219h51.559v29.537H67.058z"/> <path fill="#FFFFFF" d="M153.67,369.368v29.535h-51.559V251.219h23.451v118.148H153.67z"/> <path fill="#FFFFFF" d="M218.302,251.323v66.381c0,7.41-1.607,14.168-4.821,20.273c-3.105,5.969-7.272,10.43-12.501,13.379v47.445
		h-23.369v-47.238c-5.339-2.812-9.615-7.238-12.829-13.277c-3.323-6.242-4.984-13.104-4.984-20.582v-66.381h23.451v66.381
		c0,2.057,0.572,3.807,1.716,5.248c1.144,1.441,2.505,2.162,4.086,2.162c1.634,0,3.023-0.721,4.167-2.162s1.716-3.191,1.716-5.248
		v-66.381H218.302z"/> <path fill="#FFFFFF" d="M280.156,398.903h-23.451V251.219h23.451V398.903z"/> <path fill="#FFFFFF" d="M345.279,280.858h-17.731v117.943h-23.369V280.858h-17.404v-29.535h58.504V280.858z"/> <path fill="#FFFFFF" d="M447.906,369.057h-9.233v29.744h-23.451v-29.744h-35.135v-29.434l35.135-88.404h23.451v88.404h9.233
		V369.057z M415.222,339.624v-25.111l-9.232,25.111H415.222z"/> <path fill="#FFFFFF" d="M542.035,251.323v113.721c0,10.156-2.833,18.834-8.498,26.039c-5.72,7.203-12.638,10.807-20.754,10.807
		c-8.062,0-14.953-3.604-20.673-10.807c-5.72-7.205-8.579-15.883-8.579-26.039V251.323h23.45v113.721
		c0,1.992,0.572,3.705,1.717,5.146c1.144,1.441,2.505,2.162,4.085,2.162c1.634,0,3.023-0.721,4.167-2.162
		c1.145-1.441,1.716-3.154,1.716-5.146V251.323H542.035z"/> </g> <path fill="#737373" d="M114.627,118.067L0.093,73.588c0,0-4.085-7.693,12.216-5.934c16.3,1.759,143.473,45.485,143.473,45.485
	s28.677-2.386,42.92,1.256c0,0,3.492-7.653,5.66-8.548c2.167-0.896,8.31-4.078,16.586-5.69c8.276-1.613,66.615-15.489,77.094-15.964
	c10.478-0.475,10.478-0.475,10.478-0.475l34.369-17.894l18.729-45.826c0,0-4.161-2.151-2.66-3.855
	c1.502-1.705-61.417-13.765-61.417-13.765s-3.409-3.002,1.324-2.261c4.734,0.742,74.134,11.962,74.134,11.962
	s11.972-1.563,12.637-0.753c0.669,0.81,0.946,2.969,0.946,2.969l80.974,11.625l-4.774,2.338l-81.86-9.912l-17.997,64.81
	c0,0-0.875,5.593-1.449,7.003c-0.575,1.409-3.145,9.382-3.145,9.382s-3.957,1.056-5.029,2.828
	c-1.071,1.771-18.228,22.361-24.115,29.551c-5.888,7.19-9.926,12.502-16.938,16.81l5.514,3.264l4.317,4.473l12.707-1.186
	c0,0,23.912-12.031,31.851-11.494c7.939,0.539,16.777,1.405,17.775,6.466c0.505,2.564-4.454,8.223-4.158,9.152
	c0.296,0.928,1.485,4.025,1.485,4.025l79.962,9.084c0,0,127.394,13.605,127.992,14.846c0.6,1.24-8.275,6.109-8.275,6.109
	l-9.685,1.041l-36.676-2.836l-117.395-10.451l-52.201-2.797c0,0-10.436,6.389-17.32,9.807s-15.192,7.496-20.762,9.27
	c-5.567,1.773-17.243,4.266-21.725,3.033c-4.479-1.23-14.621-2.906-14.143-11.033c0,0-5.661-0.445-4.625-4.25
	c1.038-3.805,2.396-8.531,2.396-8.531l-5.62-3.525l-25.345-2.559c0,0-23.588,8.736-39.391,11.111
	c-15.801,2.375-37.578,4.607-45.188,2.533s-14.175-4.072-15.054-7.473c-0.878-3.398,0.133-9.855,1.955-12.479
	c1.821-2.623,11.773-18.876,11.773-18.876s-21.091,6.308-31.594,8.63s-27.422,5.139-36.313-2.338c-6.7-5.634-5.14-7.152-5.14-7.152
	s-7.484-2.319-8.15-3.129c-0.667-0.811-1.95-1.629-1.629-2.548c0.321-0.921,3.407-5.99,3.407-5.99l2.319-2.988
	C95.313,129.941,101.505,122.45,114.627,118.067z"/> <path fill="#030303" d="M204.696,107.229l15.788,2.811l-9.048,15.893c0,0-15.446-3.704-17.154-3.16L204.696,107.229z"/> <polygon fill="#030303" points="222.936,110.356 240.013,115.736 246.517,116.957 239.542,134.934 233.157,130.147 213.603,126.34 
	"/> <polygon fill="#030303" points="247.876,121.228 250.503,131.938 242.674,134.43 "/> <path fill="#030303" d="M250.121,119.416l2.609,12.132l4.555-1.451l3.054-8.134C260.338,121.963,259.036,113.441,250.121,119.416z"/> <ellipse transform="matrix(-0.9879 0.1554 -0.1554 -0.9879 569.3121 194.4358)" fill="#030303" cx="277.057" cy="119.468" rx="3.136" ry="7.245"/> <ellipse transform="matrix(-0.9878 0.1555 -0.1555 -0.9878 585.8683 187.6598)" fill="#030303" cx="285.593" cy="116.75" rx="3.136" ry="7.245"/> <ellipse transform="matrix(-0.9878 0.1555 -0.1555 -0.9878 602.4207 180.9272)" fill="#030303" cx="294.132" cy="114.031" rx="3.136" ry="7.245"/> <ellipse transform="matrix(-0.9878 0.1555 -0.1555 -0.9878 617.8723 174.6421)" fill="#030303" cx="302.104" cy="111.493" rx="3.136" ry="7.245"/> <ellipse transform="matrix(-0.9878 0.1556 -0.1556 -0.9878 633.0521 168.4441)" fill="#030303" cx="309.933" cy="109" rx="3.136" ry="7.245"/> <ellipse transform="matrix(0.9529 -0.3034 0.3034 0.9529 -44.8699 99.6447)" fill="#333333" cx="298.245" cy="194.224" rx="30.149" ry="36.15"/> <ellipse transform="matrix(0.9529 -0.3034 0.3034 0.9529 -37.7321 36.3447)" fill="#333333" cx="98.096" cy="139.599" rx="26.705" ry="31.834"/> </symbol><symbol viewBox="0 0 235.062 82.307" id="shape-plane"><title>plane</title> <g> <path d="M57.229,49.036c0,0-10.723,2.651-18.193,9.88L0,36.868c0,0,7.229-2.891,18.434-2.53L57.229,49.036z"/> <path d="M40.845,73.013c0,0-1.747-5.498,4.097-7.229c3.121-0.925,6.283-1.052,8.434,0.724c1.582,1.306,3.018,3.194,1.446,5.783
		c-1.327,2.185-3,3.132-6.62,3.132S41.447,74.699,40.845,73.013z"/> <path d="M209.159,70.844c-6.265-0.723-20.724-1.928-20.724-1.928l-22.169-1.687l-18.554-1.446c0,0,7.47-4.458,12.169-7.952
		s11.807-9.638,12.892-10.649s3.734-12.242,3.734-12.242l40.121,1.084l2.048-1.808l-19.519-1.927l-20.723-2.048
		c0,0,6.023-28.072,6.023-28.554S175.544,0,175.544,0l-22.651,38.313c-7.831,0.602-30.362-3.614-42.41-5.06
		s-22.53-1.084-24.699-0.723s-5.421,2.048-7.349,3.374S66.988,47.182,66.988,47.182c-5.181,1.277-15.904,6.312-15.904,6.312
		s-8.554,4.819-12.168,8.555s0.602,7.831,0.602,7.831c-0.001-3.253,0.845-4.097,1.447-5.181s2.525-2.763,6.868-2.892
		c5.28-0.157,8.384,1.629,10.723,4.578c2.708,3.415,0.964,7.108-2.41,8.675s-5.903,1.085-5.903,1.085s4.337,3.012,13.494,4.698
		s17.904,1.779,27.953,0.964c10.427-0.874,18.675-5.783,19.397-5.783s36.145,1.205,42.048,1.446S226.146,80,226.146,80l8.916-7.47
		C235.062,72.53,215.424,71.566,209.159,70.844z M101.93,54.699c0,0-11.326-7.927-31.928-7.518c0,0,4.579-6.338,7.952-8.748
		s3.253-2.771,5.181-2.771s8.434-0.121,11.687,0.723s8.795,3.133,8.795,3.133L101.93,54.699z M104.581,55.302l1.928-14.271
		l3.976,14.271H104.581z M114.099,54.097l-4.819-13.735h9.156l4.337,13.012L114.099,54.097z"/> <polygon points="156.977,28.432 153.977,32.432 122.727,28.432 125.977,27.432 	"/> </g> </symbol><symbol viewBox="0 0 6.188 6.38" id="shape-plus"><title>plus</title> <g> <path d="M3.682,0v2.614h2.507v1.127H3.682V6.38H2.506V3.742H0V2.614h2.506V0H3.682z"/> </g> </symbol></svg>